<svg xmlns="http://www.w3.org/2000/svg" viewBox="0 0 260 72" fill="none">
  <rect x="1" y="1" width="70" height="70" rx="18" fill="#0F172A"/>
  <path d="M26 16h20v14h14v12H46v14H34V42H20V30h14V16Z" fill="url(#a)"/>
  <path d="M90 20h18c11 0 19 7 19 17 0 10-8 17-19 17H90V20Zm17 26c6 0 10-4 10-9 0-6-4-10-10-10h-5v19h5Z" fill="#0F172A"/>
  <path d="M135 20h13l11 15 11-15h13l-18 24v13h-12V44l-18-24Z" fill="#2563EB"/>
  <path d="M203 20h12l15 37h-13l-2-6h-12l-2 6h-13l15-37Zm3 23h7l-3-10-4 10Z" fill="#22C55E"/>
  <defs>
    <linearGradient id="a" x1="20" y1="16" x2="58" y2="58" gradientUnits="userSpaceOnUse">
      <stop stop-color="#2563EB"/>
      <stop offset="1" stop-color="#22C55E"/>
    </linearGradient>
  </defs>
</svg>
